# xmcd
#
# Track frame offsets: 
#        182
#        12077
#        26397
#        38187
#        51075
#        60132
#        70637
#        80950
#        92422
#        102405
#        113022
#        122380
#        134312
#        148410
#        161065
#        173800
#
# Disc length: 2479 seconds
#
# Revision: 1
# Processed by: cddbd v1.5.1PL0 Copyright (c) Steve Scherf et al.
# Submitted via: ExactAudioCopy v0.95b2
#
DISCID=cb09ad10
DTITLE=Various Artist - All These Things - The Sound Of New Orleans
DYEAR=1990
DGENRE=R&B
TTITLE0=Barefootin' - Robert Parker
TTITLE1=Tell It Like It Is - Aaron Neville
TTITLE2=Mother-In-Law - Ernie K-Doe
TTITLE3=Working In A Coal Mine - Lee Dorsey
TTITLE4=I Like It Like That - Chris Kenner
TTITLE5=Ooh-Poo-Pah-Doo - Jessie Hill
TTITLE6=It Will Stand - The Showmen
TTITLE7=You Always Hurt The One You Love - Clarence "Frogman" Henry
TTITLE8=Fortune Teller - Benny Spellman
TTITLE9=All These Things - Art Neville
TTITLE10=Iko Iko - The Dixie Cups
TTITLE11=Ruler Of My Heart - Irma Thomas
TTITLE12=Rockin Pneumonia And The Boogie Woogie Flu - Huey "Piano" Smi
TTITLE12=th
TTITLE13=Chicken Strut - The Meters
TTITLE14=Release Me - Johnny Adams
TTITLE15=Something You Got - Barbara George
EXTD=YEAR: 1990
EXTT0=
EXTT1=
EXTT2=
EXTT3=
EXTT4=
EXTT5=
EXTT6=
EXTT7=
EXTT8=
EXTT9=
EXTT10=
EXTT11=
EXTT12=
EXTT13=
EXTT14=
EXTT15=
PLAYORDER=
